<?xml version="1.0" encoding="UTF-8"?>
<svg width="16px" height="16px" viewBox="0 0 16 16" version="1.1" xmlns="http://www.w3.org/2000/svg" xmlns:xlink="http://www.w3.org/1999/xlink">
    <title>sketch-small</title>
    <g id="sketch-small" stroke="none" fill="none" fill-rule="evenodd">
        <path d="M0.181240398,5.74108515 L3.39626533,1.14819239 C3.46220704,1.05398995 3.56550005,0.992722217 3.67978548,0.980023835 L7.95582739,0.504908068 C7.98518546,0.50164606 8.01481454,0.50164606 8.04417261,0.504908068 L12.3202145,0.980023835 C12.4344999,0.992722217 12.537793,1.05398995 12.6037347,1.14819239 L15.8187596,5.74108515 C15.9250057,5.89286528 15.9131181,6.09774215 15.7900306,6.23621562 L8.2242228,14.7477494 C8.10488549,14.8820038 7.89511451,14.8820038 7.7757772,14.7477494 L0.209969439,6.23621562 C0.0868819081,6.09774215 0.0749943025,5.89286528 0.181240398,5.74108515 Z M8.74247625,1.65997889 L12.0767513,4.62377896 C12.2177342,4.74909703 12.4379132,4.62747947 12.4069029,4.4414173 L12.1093314,2.65598822 C12.0904611,2.54276672 12.2460809,2.4921617 12.2974135,2.59482696 L13.4254644,4.8509288 C13.4738463,4.9476925 13.5523075,5.02615375 13.6490712,5.0745356 L15.1211146,5.81055728 C15.2154967,5.85774835 15.1819156,6 15.0763932,6 L13.7630152,6 C13.5983669,6 13.4442723,6.08105845 13.3509943,6.21673559 L8.81595812,12.8131518 C8.74548372,12.91566 8.58847925,12.8230415 8.64411121,12.7117776 L11.782918,6.43416408 C11.8826531,6.23469375 11.7376044,6 11.5145898,6 L4.4854102,6 C4.26239559,6 4.11734688,6.23469375 4.21708204,6.43416408 L7.35588879,12.7117776 C7.41152075,12.8230415 7.25451628,12.91566 7.18404188,12.8131518 L2.64900572,6.21673559 C2.55572768,6.08105845 2.4016331,6 2.23698476,6 L0.923606798,6 C0.818084355,6 0.784503296,5.85774835 0.878885438,5.81055728 L2.3509288,5.0745356 C2.4476925,5.02615375 2.52615375,4.9476925 2.5745356,4.8509288 L3.70258652,2.59482696 C3.75391915,2.4921617 3.90953888,2.54276672 3.89066863,2.65598822 L3.59309712,4.4414173 C3.56208675,4.62747947 3.78226585,4.74909703 3.92324867,4.62377896 L7.25752375,1.65997889 C7.3476503,1.5798664 7.47631129,1.69825161 7.40396014,1.79471982 L5.24,4.68 C5.14111456,4.81184725 5.23519094,5 5.4,5 L10.6,5 C10.7648091,5 10.8588854,4.81184725 10.76,4.68 L8.59603986,1.79471982 C8.52368871,1.69825161 8.6523497,1.5798664 8.74247625,1.65997889 Z" id="shape" fill="#000000"></path>
    </g>
</svg>