<svg xmlns="http://www.w3.org/2000/svg" width="271" height="59" fill="none" viewBox="0 0 271 59"><g clip-path="url(#a)"><rect width="56" height="56" x="1" y="1.145" fill="url(#b)" rx="28"/><g filter="url(#c)"><path fill="#fff" d="M13.36 27.021c0-9.385 7.607-16.993 16.992-16.993s16.993 7.608 16.993 16.993v7.724c0 5.12-4.15 9.27-9.268 9.27h-23.1c-.068 0-.102 0-.13-.002a1.545 1.545 0 0 1-1.487-1.486V27.021"/><path fill="url(#d)" fill-opacity=".2" d="M13.36 27.021c0-9.385 7.607-16.993 16.992-16.993s16.993 7.608 16.993 16.993v7.724c0 5.12-4.15 9.27-9.268 9.27h-23.1c-.068 0-.102 0-.13-.002a1.545 1.545 0 0 1-1.487-1.486V27.021"/><g filter="url(#e)"><rect width="4.634" height="11.972" x="29.965" y="19.297" fill="#5900ff" rx="2.158"/></g><g filter="url(#f)"><rect width="4.634" height="11.972" x="37.303" y="19.297" fill="#5900ff" rx="2.158"/></g></g></g><g clip-path="url(#g)"><path fill="#5900ff" d="M81.148 15.908q0 1.39.915 2.135.949.745 2.541.745 1.424 0 2.1-.474.68-.474 1.153-1.423.44-.88 1.186-.881h7.318q.305 0 .509.237a.64.64 0 0 1 .237.508q0 2.067-1.39 4.066-1.388 1.965-4.235 3.287-2.811 1.287-6.878 1.287-3.626 0-6.471-1.084-2.812-1.118-4.473-3.388Q72 18.619 72 15.197v-3.998q0-3.423 1.66-5.693 1.66-2.304 4.473-3.388Q80.979 1 84.604 1q4.066 0 6.878 1.321 2.847 1.288 4.236 3.287 1.389 1.965 1.389 4.032a.75.75 0 0 1-.237.542.7.7 0 0 1-.509.203h-7.318q-.745 0-1.186-.88-.474-.949-1.152-1.424-.678-.474-2.1-.474-1.594 0-2.542.745-.915.746-.915 2.135zM108.279 23.905q-.44 1.15-1.525 1.151h-6.403a.8.8 0 0 1-.543-.203.8.8 0 0 1-.203-.542l.034-.203 7.386-21.651q.136-.44.509-.78.372-.338 1.016-.338h9.419q.644 0 1.017.339t.508.779l7.386 21.65.034.204a.75.75 0 0 1-.237.542.7.7 0 0 1-.508.203h-6.404q-1.084 0-1.525-1.152l-.847-2.371h-8.267zm4.981-16.027-2.406 7.048h4.811zM143.914 9.945q3.728.406 5.964 1.321 2.27.915 3.286 2.406 1.017 1.49 1.017 3.727 0 2.44-1.593 4.27-1.559 1.794-4.337 2.778-2.778.948-6.336.948-3.964 0-6.709-.982t-4.099-2.61q-1.356-1.66-1.356-3.625 0-.338.204-.542a.86.86 0 0 1 .576-.203h6.946q.711 0 1.152.44.576.542 1.287.746.712.17 1.999.17 3.219 0 3.219-.983 0-.407-.44-.678-.407-.305-1.491-.508-1.052-.238-3.117-.475-4.643-.541-7.116-2.304-2.473-1.796-2.473-5.048 0-2.304 1.389-4.066t3.93-2.744Q138.392 1 141.78 1q3.523 0 6.166 1.118 2.643 1.084 4.032 2.71 1.389 1.627 1.389 3.186a.68.68 0 0 1-.237.542q-.202.203-.576.203h-7.284q-.577 0-1.051-.407a2.9 2.9 0 0 0-.881-.542q-.508-.203-1.558-.203-2.27 0-2.27.949 0 .508.88.813.882.27 3.524.576M174.399 1.339q3.186 0 5.557 1.084t3.625 2.948 1.254 4.167q0 3.795-2.372 5.964-2.371 2.134-8.064 2.134h-4.472v6.506q0 .373-.271.643a.88.88 0 0 1-.644.271h-7.285a.88.88 0 0 1-.643-.27.88.88 0 0 1-.271-.644V2.254q0-.373.271-.644a.88.88 0 0 1 .643-.271zm-.135 10.029q.813 0 1.287-.474.475-.51.475-1.322 0-.847-.475-1.389-.474-.542-1.287-.542h-4.303v3.727zM210.814 18.45q.372 0 .644.27.27.272.271.644v4.778a.88.88 0 0 1-.271.643.88.88 0 0 1-.644.271H189.4a.88.88 0 0 1-.644-.27.88.88 0 0 1-.271-.644V2.254q0-.373.271-.644a.88.88 0 0 1 .644-.271h21.075a.88.88 0 0 1 .644.27q.271.272.271.645V7.03q0 .373-.271.644a.88.88 0 0 1-.644.27h-13.18v2.136h11.317q.372 0 .643.27.271.272.271.644V15.4q0 .372-.271.644a.88.88 0 0 1-.643.27h-11.317v2.135zM242.18 24.006q.068.135.068.305a.75.75 0 0 1-.237.542.7.7 0 0 1-.509.203h-7.691q-.474 0-.881-.237a1.4 1.4 0 0 1-.542-.61l-2.982-6.708h-2.846v6.64q0 .375-.271.644a.88.88 0 0 1-.644.271h-7.318a.88.88 0 0 1-.644-.27.88.88 0 0 1-.271-.644V2.254q0-.373.271-.644a.88.88 0 0 1 .644-.271h13.18q3.05 0 5.32.982 2.304.983 3.523 2.847t1.22 4.37q0 4.608-3.558 6.675zm-11.385-12.773q.746 0 1.152-.475.407-.508.407-1.254 0-.745-.407-1.287-.372-.576-1.152-.576h-4.235v3.592z"/><path fill="#2f3946" d="M86.163 41.84q3.726.407 5.963 1.322 2.27.915 3.287 2.405t1.016 3.727q0 2.44-1.592 4.27-1.56 1.795-4.337 2.778-2.78.948-6.336.949-3.965 0-6.709-.983t-4.1-2.609Q72 52.039 72 50.074q0-.34.203-.542a.86.86 0 0 1 .576-.204h6.946q.712 0 1.152.44.576.543 1.288.746.71.17 1.999.17 3.219 0 3.219-.983 0-.407-.44-.678-.408-.304-1.492-.508-1.05-.237-3.117-.474-4.641-.543-7.115-2.304-2.475-1.796-2.474-5.049 0-2.304 1.39-4.066t3.93-2.744q2.575-.983 5.963-.983 3.524 0 6.167 1.118 2.643 1.085 4.032 2.711t1.389 3.185q0 .34-.237.542-.204.204-.576.203h-7.285q-.576 0-1.05-.406a2.9 2.9 0 0 0-.881-.542q-.509-.204-1.559-.204-2.27 0-2.27.949 0 .508.881.813.88.27 3.524.576M124.881 33.234a.88.88 0 0 1 .644.271q.271.27.271.644v5.455q0 .372-.271.644a.88.88 0 0 1-.644.27h-7.284v15.519a.88.88 0 0 1-.271.644.88.88 0 0 1-.644.27h-6.98a.88.88 0 0 1-.644-.27.88.88 0 0 1-.271-.644V40.519h-7.284a.88.88 0 0 1-.644-.271.88.88 0 0 1-.271-.644v-5.455q0-.373.271-.644a.88.88 0 0 1 .644-.27zM142.085 57.29q-5.693 0-9.047-2.473-3.32-2.473-3.32-7.725V34.149q0-.373.271-.644a.88.88 0 0 1 .643-.27h7.082q.372 0 .644.27.27.27.271.644v13.485q0 1.39.914 2.135.95.745 2.542.745t2.507-.745q.948-.746.949-2.135V34.15q0-.373.271-.644a.88.88 0 0 1 .643-.27h7.082q.372 0 .644.27.27.27.271.644v12.943q0 5.251-3.355 7.725-3.32 2.474-9.012 2.474M170.876 33.234q5.725 0 9.148 2.474 3.456 2.472 3.456 7.657v3.456q0 5.286-3.422 7.725-3.389 2.406-9.182 2.406h-10.809a.88.88 0 0 1-.644-.271.88.88 0 0 1-.271-.644V34.149q0-.373.271-.644a.88.88 0 0 1 .644-.27zm.169 17.11q1.593 0 2.507-.745.95-.78.949-2.168v-4.676q0-1.39-.949-2.135-.915-.78-2.507-.779h-3.083v10.504zM204.478 50.006h6.133q.373 0 .643.27.271.272.271.645v5.116q0 .372-.271.644a.88.88 0 0 1-.643.27h-21.482a.88.88 0 0 1-.644-.27.88.88 0 0 1-.271-.644V50.92q0-.373.271-.644a.88.88 0 0 1 .644-.271h6.201V40.18h-6.201a.88.88 0 0 1-.644-.271.88.88 0 0 1-.271-.644V34.15q0-.373.271-.644a.88.88 0 0 1 .644-.27h21.482q.373 0 .643.27.271.27.271.644v5.116q0 .373-.271.644a.88.88 0 0 1-.643.271h-6.133zM241.367 47.16q0 5.184-3.456 7.657-3.423 2.474-9.148 2.474-5.727 0-9.183-2.474-3.422-2.473-3.422-7.725v-3.998q0-3.456 1.627-5.726 1.66-2.304 4.506-3.389t6.472-1.084q3.624 0 6.437 1.084 2.847 1.084 4.507 3.355t1.66 5.692zm-16.06.644q0 1.389.914 2.134.95.745 2.542.745t2.507-.745q.948-.78.949-2.168v-5.354q0-1.389-.949-2.134-.915-.78-2.507-.78t-2.542.746q-.915.745-.914 2.134zM259.519 41.84q3.726.407 5.963 1.322 2.27.915 3.287 2.405t1.016 3.727q0 2.44-1.592 4.27-1.559 1.795-4.337 2.778-2.78.948-6.336.949-3.964 0-6.709-.983t-4.1-2.609q-1.355-1.66-1.355-3.625 0-.34.203-.542a.86.86 0 0 1 .576-.204h6.946q.711 0 1.152.44.576.543 1.288.746.71.17 1.999.17 3.219 0 3.218-.983 0-.407-.44-.678-.406-.304-1.491-.508-1.05-.237-3.117-.474-4.642-.543-7.115-2.304-2.474-1.796-2.474-5.049 0-2.304 1.389-4.066t3.931-2.744q2.575-.983 5.963-.983 3.524 0 6.167 1.118 2.643 1.085 4.032 2.711t1.389 3.185a.68.68 0 0 1-.237.542q-.204.204-.576.203h-7.285q-.576 0-1.05-.406a2.9 2.9 0 0 0-.881-.542q-.509-.204-1.559-.204-2.27 0-2.27.949 0 .508.881.813.88.27 3.524.576"/></g><defs><filter id="c" width="72.607" height="72.607" x="-5.951" y="-2.717" color-interpolation-filters="sRGB" filterUnits="userSpaceOnUse"><feFlood flood-opacity="0" result="BackgroundImageFix"/><feColorMatrix in="SourceAlpha" result="hardAlpha" values="0 0 0 0 0 0 0 0 0 0 0 0 0 0 0 0 0 0 127 0"/><feOffset dy="6.566"/><feGaussianBlur stdDeviation="9.655"/><feColorMatrix values="0 0 0 0 0 0 0 0 0 0 0 0 0 0 0 0 0 0 0.19 0"/><feBlend in2="BackgroundImageFix" result="effect1_dropShadow_222_7096"/><feColorMatrix in="SourceAlpha" result="hardAlpha" values="0 0 0 0 0 0 0 0 0 0 0 0 0 0 0 0 0 0 127 0"/><feOffset dy="4.634"/><feGaussianBlur stdDeviation="2.897"/><feColorMatrix values="0 0 0 0 0 0 0 0 0 0 0 0 0 0 0 0 0 0 0.24 0"/><feBlend in2="effect1_dropShadow_222_7096" result="effect2_dropShadow_222_7096"/><feBlend in="SourceGraphic" in2="effect2_dropShadow_222_7096" result="shape"/></filter><filter id="e" width="6.792" height="14.13" x="28.617" y="18.758" color-interpolation-filters="sRGB" filterUnits="userSpaceOnUse"><feFlood flood-opacity="0" result="BackgroundImageFix"/><feColorMatrix in="SourceAlpha" result="hardAlpha" values="0 0 0 0 0 0 0 0 0 0 0 0 0 0 0 0 0 0 127 0"/><feOffset dx="-.27" dy=".539"/><feGaussianBlur stdDeviation=".539"/><feComposite in2="hardAlpha" operator="out"/><feColorMatrix values="0 0 0 0 1 0 0 0 0 1 0 0 0 0 1 0 0 0 1 0"/><feBlend in2="BackgroundImageFix" result="effect1_dropShadow_222_7096"/><feBlend in="SourceGraphic" in2="effect1_dropShadow_222_7096" result="shape"/></filter><filter id="f" width="6.792" height="14.13" x="35.955" y="18.758" color-interpolation-filters="sRGB" filterUnits="userSpaceOnUse"><feFlood flood-opacity="0" result="BackgroundImageFix"/><feColorMatrix in="SourceAlpha" result="hardAlpha" values="0 0 0 0 0 0 0 0 0 0 0 0 0 0 0 0 0 0 127 0"/><feOffset dx="-.27" dy=".539"/><feGaussianBlur stdDeviation=".539"/><feComposite in2="hardAlpha" operator="out"/><feColorMatrix values="0 0 0 0 1 0 0 0 0 1 0 0 0 0 1 0 0 0 1 0"/><feBlend in2="BackgroundImageFix" result="effect1_dropShadow_222_7096"/><feBlend in="SourceGraphic" in2="effect1_dropShadow_222_7096" result="shape"/></filter><clipPath id="a"><rect width="56" height="56" x="1" y="1.145" fill="#fff" rx="28"/></clipPath><clipPath id="g"><path fill="#fff" d="M72 1h197.785v56.291H72z"/></clipPath><radialGradient id="d" cx="0" cy="0" r="1" gradientTransform="matrix(-55.7093 65.4487 -65.4487 -51.3841 77.478 -21.434)" gradientUnits="userSpaceOnUse"><stop stop-opacity=".25"/><stop offset=".547" stop-color="#f5f5f5"/><stop offset="1" stop-color="#5900ff"/></radialGradient><linearGradient id="b" x1="48.31" x2="10.269" y1="1.145" y2="46.138" gradientUnits="userSpaceOnUse"><stop stop-color="#f0f"/><stop offset="1" stop-color="#5900ff"/></linearGradient></defs></svg>